<?xml version="1.0" standalone="no"?>
<!DOCTYPE svg PUBLIC "-//W3C//DTD SVG 20010904//EN"
 "http://www.w3.org/TR/2001/REC-SVG-20010904/DTD/svg10.dtd">
<svg version="1.0" xmlns="http://www.w3.org/2000/svg"
 width="1920.000000pt" height="1080.000000pt" viewBox="0 0 1920.000000 1080.000000"
 preserveAspectRatio="xMidYMid meet">

<g transform="translate(0.000000,1080.000000) scale(0.100000,-0.100000)"
fill="#000000" stroke="none">
<path d="M0 8695 c0 -507 1 -538 19 -573 73 -143 746 -1306 825 -1427 377
-574 789 -967 1279 -1221 373 -192 667 -273 1257 -344 224 -27 220 -26 220
-50 0 -11 2 -20 4 -20 127 0 1108 -63 1461 -94 726 -64 2902 -217 4140 -291
143 -8 328 -20 410 -25 292 -19 473 -30 735 -45 146 -9 371 -22 500 -30 129
-7 289 -17 355 -20 66 -3 183 -10 260 -15 77 -6 509 -30 960 -55 451 -25 937
-52 1080 -60 143 -8 469 -26 725 -40 256 -13 719 -38 1030 -55 879 -47 1446
-75 2640 -135 608 -30 1149 -57 1203 -60 l97 -7 0 2551 0 2551 -9600 0 -9600
0 0 -535z m2192 -2164 c11 -13 24 -18 38 -14 19 5 21 3 16 -14 -4 -13 0 -27
10 -38 14 -14 15 -18 4 -25 -8 -5 -14 -21 -15 -37 0 -22 -4 -27 -20 -25 -10 2
-25 -4 -32 -14 -12 -17 -14 -17 -32 0 -10 10 -27 16 -38 14 -13 -2 -17 2 -15
15 2 11 -4 27 -13 38 -16 17 -16 19 -1 35 10 10 14 24 10 36 -4 15 -2 19 13
18 33 -4 43 0 43 15 0 20 12 19 32 -4z"/>
</g>
</svg>
